<svg xmlns="http://www.w3.org/2000/svg" width="300" height="100" viewBox="0 0 300 100">
  <text transform="translate(91.545 64.47)" fill="#010101" font-family="'ArialMT'" font-size="42.195">
    Instagram
  </text>
  <path fill="#010101" d="M70.15 45.27h-5.446c.475 1.417.71 3.067.71 4.73 0 10.41-8.512 18.923-18.923 18.923-10.41 0-18.923-8.515-18.923-18.924 0-1.663.238-3.313.712-4.73h-5.443v26.025c0 1.413.943 2.354 2.368 2.354h42.57c1.423 0 2.372-.94 2.372-2.355V45.27h.003zm0-16.557c0-1.413-.95-2.36-2.372-2.36H60.68c-1.414 0-2.362.947-2.362 2.36v7.09c0 1.422.948 2.37 2.362 2.37h7.1c1.422 0 2.37-.948 2.37-2.37v-7.09zm-23.657 9.46c-6.623 0-11.83 5.203-11.83 11.826 0 6.622 5.205 11.825 11.83 11.825S58.318 56.625 58.318 50c0-6.623-5.2-11.826-11.825-11.826M70.15 80.748H22.84c-4.02 0-7.095-3.066-7.095-7.1V26.35c0-4.026 3.075-7.1 7.094-7.1h47.31c4.013 0 7.088 3.074 7.088 7.1v47.296c0 4.036-3.072 7.102-7.088 7.102"/>
</svg>