<svg xmlns="http://www.w3.org/2000/svg" width="600" height="100" viewBox="0 0 600 100">

	<path class="experiment" d="M150.142 73.467v-46.61h34.56v7.884h-25.15v10.335h23.402v7.854h-23.4v12.685h26.04v7.854H150.14v-.003zM188.835 73.467l15.93-24.323-14.436-22.288h11l9.348 14.976 9.157-14.976h10.905l-14.498 22.638 15.93 23.974H220.82l-10.333-16.12-10.365 16.12h-11.287zM237.004 73.467v-46.61h15.103c5.723 0 9.453.233 11.19.698 2.672.7 4.908 2.22 6.71 4.562 1.8 2.343 2.702 5.37 2.702 9.078 0 2.86-.52 5.268-1.56 7.217-1.038 1.95-2.357 3.482-3.957 4.595-1.6 1.112-3.227 1.85-4.88 2.21-2.247.445-5.5.667-9.76.667h-6.137v17.583h-9.412zm9.41-38.727v13.227h5.152c3.71 0 6.19-.243 7.44-.73 1.25-.488 2.23-1.25 2.94-2.29.71-1.038 1.066-2.246 1.066-3.624 0-1.695-.498-3.095-1.494-4.197-.997-1.102-2.257-1.79-3.784-2.066-1.124-.21-3.38-.318-6.772-.318h-4.547v-.002zM280.435 73.467v-46.61h34.56v7.884h-25.148v10.335h23.4v7.854h-23.4v12.685h26.04v7.854h-35.452v-.003zM323.898 73.467v-46.61h19.81c4.98 0 8.6.418 10.856 1.255 2.258.838 4.063 2.326 5.42 4.467 1.356 2.14 2.035 4.59 2.035 7.345 0 3.496-1.028 6.385-3.085 8.664-2.058 2.276-5.13 3.715-9.222 4.307 2.035 1.188 3.716 2.492 5.04 3.912 1.325 1.42 3.11 3.94 5.357 7.564l5.69 9.094h-11.255l-6.805-10.143c-2.416-3.625-4.07-5.908-4.96-6.853-.89-.943-1.833-1.59-2.83-1.938-.996-.35-2.575-.525-4.737-.525h-1.906v19.458h-9.41zm9.413-26.9h6.964c4.515 0 7.332-.19 8.457-.57 1.124-.383 2.003-1.04 2.64-1.972.636-.934.954-2.1.954-3.498 0-1.568-.42-2.834-1.257-3.8s-2.018-1.573-3.545-1.827c-.764-.106-3.053-.16-6.867-.16h-7.344v11.828zM370.604 73.467v-46.61h9.412v46.61h-9.412zM388.855 73.467v-46.61h14.084l8.456 31.793 8.362-31.794h14.115v46.61h-8.742v-36.69l-9.25 36.69h-9.063l-9.22-36.69v36.69h-8.742zM443.223 73.467v-46.61h34.562v7.884h-25.148v10.335h23.4v7.854h-23.4v12.685h26.04v7.854h-35.453v-.003zM486.75 73.467v-46.61h9.156l19.076 31.125V26.856h8.743v46.61h-9.442l-18.79-30.395v30.397h-8.743zM544.17 73.467V34.74h-13.83v-7.885h37.04v7.885h-13.8v38.727h-9.41z"/>
  <path class="tube" fill="#020202" d="M136.07 27.246h-22.185v5.547h2.31V67.92c0 3.05 2.497 5.547 5.547 5.547h6.47c3.052 0 5.547-2.496 5.547-5.547V32.793h2.31v-5.547zm-4.62 33.74h-11.094v-1.848h11.093v1.848zm0-6.93h-6.472v-1.85h6.47v1.85zm0-6.935h-11.094v-1.848h11.093v1.85zm0-6.932h-6.472V38.34h6.47v1.848z"/>

	<circle fill="#000" cx="66.836" cy="50.356" r="34"/>
</svg>